<?xml version="1.0" standalone="no"?>
<!DOCTYPE svg PUBLIC "-//W3C//DTD SVG 20010904//EN"
 "http://www.w3.org/TR/2001/REC-SVG-20010904/DTD/svg10.dtd">
<svg version="1.0" xmlns="http://www.w3.org/2000/svg"
 width="766.000000pt" height="766.000000pt" viewBox="0 0 766.000000 766.000000"
 preserveAspectRatio="xMidYMid meet">
<metadata>
Created by potrace 1.11, written by Peter Selinger 2001-2013
</metadata>
<g transform="translate(0.000000,766.000000) scale(0.100000,-0.100000)"
fill="#000000" stroke="none">
<path d="M1165 7646 c-57 -26 -95 -94 -87 -157 2 -14 32 -77 67 -140 70 -126
70 -114 0 -167 -136 -106 -271 -274 -358 -447 -43 -85 -101 -244 -112 -303 -2
-15 -9 -52 -15 -82 -8 -44 -22 -202 -22 -255 0 -133 51 -362 113 -505 88 -205
162 -245 307 -164 158 89 188 105 205 111 9 3 17 9 17 14 0 5 4 9 10 9 5 0
154 81 331 181 177 99 322 179 324 177 7 -9 55 -96 55 -100 0 -3 -37 -35 -82
-71 -407 -326 -719 -736 -915 -1202 -49 -115 -65 -154 -68 -165 -1 -3 -15 -48
-33 -101 -17 -53 -34 -110 -36 -125 -3 -16 -10 -40 -15 -54 -16 -41 -51 -224
-66 -345 -4 -27 -8 -61 -10 -75 -9 -51 -18 -229 -18 -335 0 -117 12 -345 19
-357 2 -4 7 -33 9 -65 3 -32 9 -71 12 -88 4 -16 8 -34 9 -40 12 -105 92 -395
151 -545 48 -124 58 -146 134 -295 89 -178 239 -416 296 -473 7 -7 13 -16 13
-20 0 -4 14 -21 30 -39 17 -18 30 -34 30 -35 0 -8 91 -107 197 -215 88 -89
111 -118 107 -135 -2 -13 -6 -34 -9 -48 -13 -60 -28 -128 -36 -168 -5 -24 -11
-47 -13 -50 -2 -4 -7 -27 -11 -52 -4 -25 -8 -47 -10 -51 -2 -3 -7 -21 -10 -40
-3 -19 -13 -63 -21 -99 -8 -36 -17 -76 -19 -90 -3 -14 -9 -43 -14 -65 -5 -22
-13 -53 -16 -70 -4 -16 -9 -41 -12 -55 -3 -14 -6 -51 -7 -82 -1 -70 20 -103
86 -135 43 -21 49 -22 93 -8 27 8 59 27 74 44 29 33 28 29 98 346 19 88 36
167 38 175 19 85 55 253 55 256 0 7 64 -38 68 -48 2 -4 7 -8 12 -8 5 0 35 -17
67 -38 89 -59 135 -85 303 -168 181 -89 177 -87 255 -114 33 -12 69 -25 80
-30 52 -21 247 -79 325 -96 149 -32 311 -56 465 -69 70 -6 394 -7 445 -1 19 2
67 7 105 11 63 5 210 27 275 40 55 11 69 14 170 40 58 14 157 45 220 67 63 22
125 43 138 45 12 3 22 9 22 14 0 5 3 8 8 7 10 -4 166 64 170 74 2 4 10 8 17 8
26 0 231 117 362 206 75 51 93 59 97 46 7 -21 85 -376 92 -417 3 -16 11 -55
19 -85 8 -30 17 -71 20 -90 22 -126 49 -180 104 -206 83 -40 186 5 207 91 11
43 11 44 -3 105 -7 30 -15 69 -18 87 -2 18 -9 51 -16 75 -6 24 -13 54 -16 68
-4 26 -60 280 -69 315 -3 11 -7 34 -9 52 -2 18 -6 36 -9 42 -3 5 -8 24 -11 42
-3 19 -11 59 -19 90 l-13 57 131 135 c142 146 155 160 229 257 27 36 52 67 56
70 13 11 158 236 209 325 26 47 123 245 147 301 36 86 119 323 130 370 2 10 8
34 14 52 5 17 8 32 6 32 -2 0 2 18 10 40 8 22 14 42 15 45 0 3 0 6 1 8 0 1 2
18 5 37 2 19 7 46 10 60 10 37 13 51 18 100 3 25 8 60 11 79 25 177 26 556 1
741 -14 102 -20 137 -37 225 -11 55 -31 143 -45 195 -15 52 -28 106 -31 120
-2 13 -8 29 -12 35 -4 5 -14 30 -21 55 -7 25 -16 50 -19 55 -3 6 -6 15 -7 20
-13 63 -150 348 -243 504 -186 314 -468 632 -752 850 l-58 44 26 49 c14 26 28
50 32 52 3 2 29 -9 56 -24 28 -16 77 -43 110 -60 33 -18 67 -38 76 -46 8 -8
19 -14 23 -14 4 0 41 -20 84 -44 134 -75 176 -99 217 -121 22 -12 118 -66 214
-120 151 -84 180 -97 222 -98 73 -1 109 32 169 156 84 174 133 386 133 572 -1
86 -14 232 -26 270 -3 11 -8 31 -11 45 -29 170 -142 399 -275 560 -54 66 -174
182 -218 213 -18 12 -33 27 -33 32 0 6 12 30 26 54 102 179 110 203 93 263
-28 97 -146 137 -228 78 -17 -11 -53 -62 -82 -113 -28 -50 -58 -102 -65 -114
l-14 -23 -78 29 c-42 15 -81 28 -87 29 -5 1 -41 9 -80 17 -178 39 -402 38
-575 0 -47 -11 -170 -49 -200 -62 -145 -62 -277 -138 -349 -198 -95 -80 -178
-162 -209 -207 -9 -12 -23 -29 -32 -38 -30 -30 -113 -171 -119 -203 -17 -80
27 -141 146 -202 32 -16 60 -32 63 -35 3 -3 14 -10 25 -16 11 -6 43 -23 70
-39 86 -48 159 -88 187 -102 15 -8 30 -19 33 -24 4 -5 11 -7 16 -4 5 4 9 1 9
-4 0 -6 4 -11 9 -11 6 0 36 -15 68 -34 32 -18 81 -46 108 -61 78 -42 250 -138
254 -142 7 -5 -32 -83 -42 -83 -6 0 -40 17 -76 38 -92 53 -259 133 -361 171
-47 18 -94 37 -105 41 -17 7 -88 31 -105 35 -3 1 -12 4 -20 7 -32 12 -126 38
-157 43 -18 3 -45 10 -60 16 -15 6 -29 10 -31 9 -1 -1 -26 3 -55 9 -28 6 -63
12 -77 15 -14 2 -41 7 -60 10 -19 4 -57 9 -85 11 -27 3 -79 8 -115 12 -87 9
-446 9 -540 0 -125 -11 -144 -14 -359 -53 -201 -37 -615 -180 -713 -247 -16
-10 -28 -16 -28 -13 0 2 -47 -21 -104 -53 l-104 -58 -22 39 c-12 22 -18 44
-14 48 8 8 363 210 369 210 1 0 51 28 111 63 60 34 120 68 134 75 14 7 39 21
55 30 17 10 85 49 153 87 132 74 158 101 166 170 4 34 -23 119 -44 135 -4 3
-13 16 -19 29 -24 45 -104 144 -175 215 -312 315 -751 455 -1202 382 -65 -10
-199 -50 -275 -81 -13 -5 -28 14 -69 87 -65 116 -94 155 -128 171 -37 18 -91
20 -127 3z m975 -470 c161 -24 292 -71 420 -150 87 -54 91 -58 194 -159 62
-61 86 -91 79 -98 -14 -14 -273 -159 -284 -159 -5 0 -9 -4 -9 -8 0 -4 -12 -13
-27 -19 -16 -7 -50 -25 -78 -41 -27 -16 -72 -42 -100 -57 -27 -15 -84 -47
-125 -70 -118 -67 -137 -77 -270 -151 -69 -37 -126 -72 -128 -76 -2 -4 -8 -8
-13 -8 -10 0 -461 -250 -469 -260 -3 -4 -13 -9 -22 -13 -10 -3 -81 -42 -158
-86 l-140 -79 -16 56 c-9 32 -19 64 -22 72 -16 48 -26 146 -26 255 0 157 9
212 55 350 21 61 103 227 123 248 6 7 24 30 40 52 68 92 211 216 319 275 67
36 188 88 226 96 14 2 37 7 50 10 14 3 27 7 31 9 3 2 33 7 65 10 33 4 61 8 62
9 5 5 182 -1 223 -8z m3670 0 c25 -4 72 -14 105 -23 33 -8 65 -16 70 -18 6 -1
24 -7 40 -14 17 -6 44 -17 60 -23 44 -18 169 -89 173 -99 2 -5 10 -9 18 -9 8
0 14 -3 14 -8 0 -4 11 -14 24 -22 87 -53 228 -224 296 -359 35 -71 86 -222 94
-281 15 -120 18 -149 18 -195 1 -72 -10 -158 -28 -234 -20 -82 -19 -79 -33
-118 l-13 -32 -36 24 c-21 14 -44 28 -52 32 -8 4 -107 58 -220 121 -112 63
-214 120 -225 126 -11 6 -28 18 -39 26 -10 8 -21 14 -25 14 -3 -1 -35 15 -71
36 -36 21 -67 38 -70 38 -3 -1 -30 15 -60 33 -30 19 -66 40 -80 47 -14 6 -32
16 -40 22 -13 9 -122 70 -285 160 -65 36 -141 78 -185 103 -19 11 -53 30 -75
42 -22 12 -58 32 -80 45 -22 13 -65 36 -95 53 -30 17 -68 39 -85 51 -16 12
-32 21 -35 20 -3 0 -20 8 -37 19 l-33 19 46 53 c150 176 417 322 638 348 27 4
50 8 52 9 6 6 208 1 254 -6z m-1720 -1069 c38 -4 137 -17 240 -32 128 -19 436
-111 557 -166 24 -10 45 -19 48 -19 24 0 366 -186 373 -202 2 -4 8 -8 13 -8
19 0 248 -169 339 -251 133 -118 271 -265 355 -375 21 -27 40 -51 44 -54 3 -3
11 -12 16 -22 6 -9 35 -54 66 -100 175 -261 302 -544 381 -853 16 -66 32 -131
34 -145 2 -14 6 -36 8 -50 3 -13 8 -42 11 -65 3 -22 8 -56 10 -75 25 -176 25
-557 0 -703 -3 -18 -7 -43 -9 -57 -2 -14 -7 -41 -10 -60 -3 -19 -8 -46 -10
-60 -26 -164 -122 -456 -211 -643 -192 -403 -443 -718 -816 -1020 -116 -94
-442 -290 -554 -333 -16 -7 -61 -25 -100 -42 -66 -28 -211 -80 -244 -88 -9 -2
-58 -15 -109 -28 -51 -14 -111 -28 -135 -31 -23 -4 -45 -9 -48 -11 -4 -2 -27
-7 -50 -10 -24 -3 -57 -8 -74 -10 -16 -2 -55 -6 -85 -9 -30 -3 -71 -7 -90 -10
-41 -5 -345 -6 -410 0 -49 4 -140 13 -180 19 -53 7 -126 19 -145 23 -11 2 -32
6 -47 9 -14 3 -75 18 -135 35 -59 16 -112 31 -118 32 -130 35 -416 161 -569
252 -314 185 -604 441 -806 710 -25 33 -48 61 -52 63 -5 2 -8 10 -8 17 0 7 -3
15 -8 17 -4 2 -36 48 -72 103 -76 118 -183 326 -229 445 -18 47 -37 94 -42
105 -11 25 -57 170 -64 199 -2 12 -9 41 -16 66 -56 226 -82 445 -82 680 0 97
9 260 18 312 2 13 6 46 10 73 14 126 70 360 123 515 75 216 199 465 321 640
24 36 54 79 65 95 12 17 23 32 26 35 3 3 36 43 74 90 38 47 121 137 185 200
116 115 310 280 330 280 6 0 11 3 11 8 0 4 28 25 63 47 34 22 68 45 75 52 7 7
17 13 22 13 4 0 37 17 72 39 69 42 185 102 193 100 4 0 16 6 28 14 46 29 355
144 442 163 157 35 196 43 229 48 21 4 41 8 45 11 4 2 36 6 72 10 35 3 96 8
134 11 39 4 71 8 73 9 5 4 367 -3 422 -8z"/>
<path d="M3717 5504 c-1 -1 -38 -4 -82 -8 -73 -5 -226 -29 -264 -40 -9 -3 -27
-7 -41 -10 -74 -14 -199 -53 -267 -82 -17 -8 -34 -14 -37 -14 -3 0 -31 -12
-63 -27 -32 -15 -60 -27 -63 -28 -3 0 -45 -22 -95 -49 -315 -171 -579 -413
-779 -716 -35 -52 -76 -120 -92 -150 -15 -30 -35 -63 -43 -72 -8 -10 -11 -18
-8 -18 3 0 -10 -33 -29 -74 -72 -157 -123 -326 -159 -531 -4 -25 -16 -127 -21
-180 -4 -54 -4 -280 0 -330 23 -243 65 -422 149 -630 61 -153 183 -382 210
-393 4 -2 7 -8 7 -13 0 -41 274 -349 399 -449 24 -19 48 -40 55 -46 20 -18
178 -128 225 -156 93 -55 209 -112 314 -154 107 -43 128 -50 267 -88 57 -16
91 -23 150 -31 19 -3 45 -8 56 -10 144 -31 527 -26 709 9 17 3 42 8 56 11 63
12 221 56 275 77 32 12 64 23 69 24 19 3 179 78 238 111 33 18 60 33 62 33 3
0 110 69 159 102 39 27 144 111 205 165 240 213 442 503 556 795 20 51 40 100
44 108 7 13 22 67 26 90 0 3 4 11 9 18 4 7 5 16 2 19 -3 3 -1 14 5 24 5 10 14
38 18 61 5 24 11 52 14 63 4 18 15 87 23 140 21 148 21 516 -1 577 -2 7 -6 31
-9 53 -23 197 -122 486 -236 691 -33 59 -60 109 -60 112 0 2 -11 18 -25 36
-34 42 -37 46 -59 81 -68 107 -297 348 -411 433 -5 4 -29 22 -51 40 -23 17
-46 32 -52 32 -6 0 -12 4 -14 9 -8 24 -269 169 -403 224 -180 75 -417 134
-610 153 -61 6 -323 12 -328 8z m313 -309 c46 -4 95 -11 108 -16 12 -5 26 -8
30 -7 4 1 27 -2 52 -7 57 -11 52 -10 75 -17 11 -4 66 -21 123 -38 146 -45 474
-214 490 -252 2 -4 8 -8 13 -8 10 0 21 -9 118 -91 106 -90 229 -222 289 -309
20 -30 45 -63 55 -74 9 -11 17 -25 17 -32 0 -7 4 -14 8 -16 8 -3 86 -136 87
-148 1 -3 15 -33 33 -67 18 -35 29 -63 26 -63 -4 0 -2 -6 3 -12 39 -52 112
-345 129 -515 9 -93 4 -403 -6 -403 -3 0 -6 -21 -8 -48 -1 -26 -9 -76 -17
-112 -8 -36 -17 -76 -20 -90 -14 -64 -82 -245 -128 -340 -55 -115 -170 -291
-250 -385 -309 -362 -736 -593 -1207 -653 -72 -9 -348 -9 -430 0 -188 22 -402
81 -557 155 -43 21 -80 38 -83 38 -3 1 -30 15 -60 33 -87 52 -95 57 -100 63
-3 3 -16 12 -30 19 -22 12 -119 86 -189 145 -25 21 -159 156 -176 177 -5 7
-29 36 -51 63 -70 84 -163 234 -219 350 -47 98 -110 262 -119 312 -2 10 -9 38
-16 63 -7 25 -13 54 -15 65 -1 11 -5 35 -10 54 -23 103 -29 443 -10 561 8 47
16 99 19 115 2 17 5 30 6 30 1 0 4 14 6 30 3 17 23 84 46 150 60 178 62 185
70 185 5 0 8 7 8 15 0 22 87 180 148 270 137 200 326 385 522 515 109 72 355
192 420 206 3 0 12 4 20 7 26 12 191 53 249 63 18 3 42 7 52 9 11 2 56 7 102
11 45 3 83 7 84 8 5 4 219 -2 293 -9z"/>
<path d="M3735 4696 c-18 -17 -37 -47 -42 -66 -6 -20 -10 -193 -9 -400 l1
-365 -85 -42 c-91 -45 -157 -101 -209 -176 -35 -52 -65 -113 -70 -145 0 -5
-86 -8 -190 -9 -169 0 -193 -2 -223 -20 -49 -28 -78 -77 -78 -130 0 -54 20
-91 68 -123 37 -26 29 -26 382 -30 30 0 37 -5 49 -32 54 -133 146 -235 263
-292 40 -20 83 -39 96 -41 12 -3 32 -7 45 -10 42 -10 166 -7 219 5 52 12 148
55 191 85 139 97 230 285 222 456 -6 123 -24 178 -92 287 -47 75 -165 164
-264 201 l-26 10 -1 380 c0 425 1 420 -72 469 -52 35 -131 29 -175 -12z m201
-1144 c179 -91 171 -343 -13 -425 -79 -36 -190 -16 -256 47 -59 55 -87 175
-58 249 26 66 93 128 159 147 45 13 125 4 168 -18z"/>
</g>
</svg>
