<svg width="24" height="24" viewBox="0 0 24 24" fill="none" xmlns="http://www.w3.org/2000/svg">
<path d="M12.6927 2.00389C7.09988 1.84836 2.51792 6.38081 2.51792 12.0019H0.551082C0.0566256 12.0019 -0.185109 12.6018 0.166505 12.9462L3.23213 16.0567C3.45189 16.2789 3.79252 16.2789 4.01227 16.0567L7.0779 12.9462C7.42952 12.6018 7.17679 12.0019 6.69333 12.0019H4.7155C4.7155 7.66945 8.20966 4.17013 12.5169 4.22568C16.6044 4.28122 20.0436 7.75832 20.0986 11.8909C20.1535 16.2345 16.6923 19.7782 12.407 19.7782C10.638 19.7782 9.00079 19.1672 7.70421 18.1341C7.2647 17.7897 6.64937 17.823 6.25381 18.223C5.79232 18.7006 5.82528 19.4783 6.34171 19.8893C8.01188 21.2113 10.1216 22 12.407 22C17.9559 22 22.45 17.3676 22.2962 11.7131C22.1533 6.50301 17.8461 2.1483 12.6927 2.00389V2.00389ZM12.1323 7.55836C11.6818 7.55836 11.3083 7.93607 11.3083 8.39153V12.4796C11.3083 12.8684 11.517 13.235 11.8467 13.435L15.2749 15.4902C15.6705 15.7234 16.1759 15.5901 16.4066 15.2013C16.6374 14.8014 16.5055 14.2904 16.121 14.0571L12.9564 12.1575V8.38043C12.9564 7.93607 12.5938 7.55836 12.1323 7.55836V7.55836Z"/>
</svg>
